<?xml version="1.0" encoding="iso-8859-1"?>
<!-- Generator: Adobe Illustrator 22.0.1, SVG Export Plug-In . SVG Version: 6.00 Build 0)  -->
<svg version="1.1" xmlns="http://www.w3.org/2000/svg" xmlns:xlink="http://www.w3.org/1999/xlink" x="0px" y="0px"
	 viewBox="0 0 128 128" style="enable-background:new 0 0 128 128;" xml:space="preserve">
<g id="_x32_">
	<path style="fill:#FCC677;" d="M117.756,92.226v-0.021c0-4.35-3.557-7.907-7.928-7.907H47.522c-4.371,0-7.928,3.557-7.928,7.907
		v0.021c0,4.35,3.557,7.907,7.928,7.907h62.305C114.199,100.133,117.756,96.576,117.756,92.226z"/>
	<path style="fill:#1D252C;" d="M109.828,81.994H75.438V33.749C75.438,15.14,60.298,0,41.689,0S7.94,15.14,7.94,33.749v65.872
		C7.94,115.27,20.67,128,36.319,128h10.741c14.698,0,26.818-11.232,28.236-25.564h34.532c5.642,0,10.232-4.581,10.232-10.211v-0.021
		C120.06,86.575,115.469,81.994,109.828,81.994z M47.059,123.392H36.319c-13.108,0-23.771-10.664-23.771-23.771V33.749
		c0-16.068,13.073-29.142,29.141-29.142S70.83,17.681,70.83,33.749v48.245h-9.514c-3.711-6.328-10.571-10.331-17.972-10.331
		c-11.481,0-20.821,9.34-20.821,20.82c0,11.481,9.34,20.821,20.821,20.821c7.681,0,14.659-4.213,18.274-10.868h9.029
		C69.249,114.22,59.213,123.392,47.059,123.392z M47.522,81.994c-5.642,0-10.231,4.581-10.231,10.232
		c0,5.63,4.59,10.211,10.231,10.211h10.474c-3.259,4.806-8.696,7.796-14.652,7.796c-9.787,0-17.749-7.962-17.749-17.749
		c0-9.786,7.962-17.748,17.749-17.748c5.674,0,10.955,2.78,14.268,7.26H47.522z M115.452,92.226c0,3.09-2.523,5.603-5.625,5.603
		H47.522c-3.101,0-5.624-2.513-5.624-5.624c0-3.09,2.523-5.603,5.624-5.603h62.305c3.102,0,5.625,2.513,5.625,5.603V92.226z
		 M59.095,36.695H24.282v-4.608h34.813V36.695z M88.994,60.958c4.605-4.605,7.142-10.728,7.142-17.241S93.6,31.082,88.994,26.476
		l2.172-2.172c5.186,5.185,8.042,12.08,8.042,19.413s-2.856,14.227-8.042,19.412L88.994,60.958z M97.546,17.925l2.172-2.172
		c15.42,15.42,15.42,40.509,0,55.928l-2.172-2.172C111.768,55.288,111.768,32.147,97.546,17.925z M80.443,52.407
		c2.321-2.321,3.599-5.407,3.599-8.69s-1.278-6.369-3.599-8.69l2.172-2.172c5.989,5.989,5.989,15.734,0,21.723L80.443,52.407z"/>
</g>
<g id="Layer_1">
</g>
</svg>
