<?xml version="1.0" encoding="iso-8859-1"?>
<!-- Generator: Adobe Illustrator 21.0.2, SVG Export Plug-In . SVG Version: 6.00 Build 0)  -->
<svg version="1.1" xmlns="http://www.w3.org/2000/svg" xmlns:xlink="http://www.w3.org/1999/xlink" x="0px" y="0px"
	 viewBox="0 0 64 64" style="enable-background:new 0 0 64 64;" xml:space="preserve">
<g id="_x32_5_vegetables">
</g>
<g id="_x32_4_cupcake">
</g>
<g id="_x32_3_chef">
</g>
<g id="_x32_2_grinder">
</g>
<g id="_x32_1_kettle">
</g>
<g id="_x32_0_pouring_water">
</g>
<g id="_x31_9_rolling_pin">
</g>
<g id="_x31_8_mixing">
</g>
<g id="_x31_7_apron">
</g>
<g id="_x31_6_lemon_squeezer">
</g>
<g id="_x31_5_hot_pot">
</g>
<g id="_x31_4_blender">
</g>
<g id="_x31_3_oven">
	<g>
		<path d="M59.7666,6.0703H4.2329C2.4502,6.0703,1,7.521,1,9.3037v40.895c0,1.4315,0.9415,2.6348,2.2329,3.0589v2.5934
			c0,1.146,0.9341,2.0786,2.082,2.0786h10.9756c1.1479,0,2.082-0.9326,2.082-2.0786v-2.4189h27.2583v2.4189
			c0,1.146,0.9326,2.0786,2.0791,2.0786h10.9785c1.1455,0,2.0781-0.9326,2.0781-2.0786v-2.5933
			C62.0585,52.8337,63,51.6304,63,50.1987V9.3037C63,7.521,61.5498,6.0703,59.7666,6.0703z M16.3726,55.8511
			c0,0.041-0.0391,0.0786-0.082,0.0786H5.3149c-0.043,0-0.082-0.0376-0.082-0.0786v-2.4189h11.1396V55.8511z M58.7666,55.8511
			c0,0.0425-0.0361,0.0786-0.0781,0.0786H47.71c-0.042,0-0.0791-0.0366-0.0791-0.0786v-2.4189h11.1357V55.8511z M61,50.1987
			c0,0.6802-0.5537,1.2334-1.2334,1.2334H4.2329C3.5532,51.4321,3,50.8789,3,50.1987V9.3037c0-0.6802,0.5532-1.2334,1.2329-1.2334
			h55.5337C60.4463,8.0703,61,8.6235,61,9.3037V50.1987z"/>
		<path d="M46.1055,12.6699H7.7485c-0.5522,0-1,0.4478-1,1v32.1802c0,0.5522,0.4478,1,1,1h38.3569c0.5527,0,1-0.4478,1-1V13.6699
			C47.1055,13.1177,46.6582,12.6699,46.1055,12.6699z M45.1055,14.6699v14.0918H8.7485V14.6699H45.1055z M8.7485,44.8501V30.7617
			h36.3569v14.0884H8.7485z"/>
		<path d="M51.3906,18.0435h4.7881c0.5527,0,1-0.4478,1-1s-0.4473-1-1-1h-4.7881c-0.5527,0-1,0.4478-1,1
			S50.8379,18.0435,51.3906,18.0435z"/>
		<path d="M51.3906,24.7983h4.7881c0.5527,0,1-0.4478,1-1s-0.4473-1-1-1h-4.7881c-0.5527,0-1,0.4478-1,1
			S50.8379,24.7983,51.3906,24.7983z"/>
		<path d="M53.9248,36.5918c-2.2021,0-3.9932,1.7915-3.9932,3.9937s1.791,3.9937,3.9932,3.9937s3.9941-1.7915,3.9941-3.9937
			S56.127,36.5918,53.9248,36.5918z M53.9248,42.5791c-1.0986,0-1.9932-0.8945-1.9932-1.9937s0.8945-1.9937,1.9932-1.9937
			c1.0996,0,1.9941,0.8945,1.9941,1.9937S55.0244,42.5791,53.9248,42.5791z"/>
		<path d="M51.3906,31.8091h4.7881c0.5527,0,1-0.4478,1-1s-0.4473-1-1-1h-4.7881c-0.5527,0-1,0.4478-1,1
			S50.8379,31.8091,51.3906,31.8091z"/>
	</g>
</g>
<g id="_x31_2_online_recipe">
</g>
<g id="_x31_1_noodle">
</g>
<g id="_x31_0_grilling_meat">
</g>
<g id="_x30_9_chicken">
</g>
<g id="_x30_8_scale">
</g>
<g id="_x30_7_mixer">
</g>
<g id="_x30_6_rice">
</g>
<g id="_x30_5_cutting_board">
</g>
<g id="_x30_4_toast">
</g>
<g id="_x30_3_pour_seasoning">
</g>
<g id="_x30_2_pot">
</g>
<g id="_x30_1_food_serving">
</g>
</svg>
